<?xml version="1.0" encoding="utf-8"?>
<svg xmlns="http://www.w3.org/2000/svg" style="margin: auto; background: rgb(56, 56, 56); display: block; position: absolute; shape-rendering: auto; animation-play-state: running; animation-delay: 0s;" width="143" height="143" preserveAspectRatio="xMidYMid">
<defs style="animation-play-state: running; animation-delay: 0s;">
<pattern id="pid-0.6590519274487807" x="0" y="0" width="143" height="143" patternUnits="userSpaceOnUse" style="animation-play-state: running; animation-delay: 0s;"><!-- Generator: Adobe Illustrator 21.0.0, SVG Export Plug-In . SVG Version: 6.00 Build 0)  -->
























<g data-idx="0" dx="-256" dy="0" style="transform-origin: -135.78px 125.736px; animation: move-ltr-c2f782e7-4b9c-4010-9da4-87c1996ffbb8 5s linear 0s infinite normal forwards running;"><g transform="scale(0.56) translate(-256, 0)" style="animation-play-state: running; animation-delay: 0s;"><path fill="#F8B26A" d="M20.013,217.807c-0.006-0.313-0.179-0.598-0.453-0.749c-0.274-0.151-0.607-0.144-0.875,0.018L7.21,224.014
	c-0.267,0.162-0.428,0.454-0.422,0.766s0.179,0.598,0.453,0.749l11.746,6.469c0.274,0.151,0.607,0.144,0.875-0.018
	c0.267-0.162,0.428-0.454,0.422-0.766L20.013,217.807z M9.412,224.727l8.882-5.369l0.209,10.376L9.412,224.727z" data-fill="c1" style="fill: rgb(248, 178, 106); animation-play-state: running; animation-delay: 0s;"></path></g></g><g data-idx="0" dx="0" dy="0" style="transform-origin: 7.58016px 125.736px; animation: move-ltr-c2f782e7-4b9c-4010-9da4-87c1996ffbb8 5s linear 0s infinite normal forwards running;"><g transform="scale(0.56) translate(0, 0)" style="animation-play-state: running; animation-delay: 0s;"><path fill="#F8B26A" d="M20.013,217.807c-0.006-0.313-0.179-0.598-0.453-0.749c-0.274-0.151-0.607-0.144-0.875,0.018L7.21,224.014
	c-0.267,0.162-0.428,0.454-0.422,0.766s0.179,0.598,0.453,0.749l11.746,6.469c0.274,0.151,0.607,0.144,0.875-0.018
	c0.267-0.162,0.428-0.454,0.422-0.766L20.013,217.807z M9.412,224.727l8.882-5.369l0.209,10.376L9.412,224.727z" data-fill="c1" style="fill: rgb(248, 178, 106); animation-play-state: running; animation-delay: 0s;"></path></g></g><g data-idx="1" dx="-256" dy="0" style="transform-origin: -126.016px 71.6799px; animation: move-ltr-c2f782e7-4b9c-4010-9da4-87c1996ffbb8 2.5s linear 0s infinite normal forwards running;"><g transform="scale(0.56) translate(-256, 0)" style="animation-play-state: running; animation-delay: 0s;"><path fill="#E15B64" d="M32.121,136.413l7.342-8.327c0.32-0.362,0.285-0.915-0.078-1.235l-8.327-7.342
	c-0.362-0.32-0.915-0.285-1.235,0.078l-7.342,8.327c-0.32,0.362-0.285,0.915,0.078,1.235l8.327,7.342
	C31.248,136.81,31.802,136.776,32.121,136.413z M24.373,128.415l6.184-7.014l7.014,6.184l-6.184,7.014L24.373,128.415z" data-fill="c2" style="fill: rgb(225, 91, 100); animation-play-state: running; animation-delay: 0s;"></path></g></g><g data-idx="1" dx="0" dy="0" style="transform-origin: 17.3443px 71.6799px; animation: move-ltr-c2f782e7-4b9c-4010-9da4-87c1996ffbb8 2.5s linear 0s infinite normal forwards running;"><g transform="scale(0.56) translate(0, 0)" style="animation-play-state: running; animation-delay: 0s;"><path fill="#E15B64" d="M32.121,136.413l7.342-8.327c0.32-0.362,0.285-0.915-0.078-1.235l-8.327-7.342
	c-0.362-0.32-0.915-0.285-1.235,0.078l-7.342,8.327c-0.32,0.362-0.285,0.915,0.078,1.235l8.327,7.342
	C31.248,136.81,31.802,136.776,32.121,136.413z M24.373,128.415l6.184-7.014l7.014,6.184l-6.184,7.014L24.373,128.415z" data-fill="c2" style="fill: rgb(225, 91, 100); animation-play-state: running; animation-delay: 0s;"></path></g></g><g data-idx="2" dx="-256" dy="0" style="transform-origin: -78.4599px 80.915px; animation: move-ltr-c2f782e7-4b9c-4010-9da4-87c1996ffbb8 1.66667s linear 0s infinite normal forwards running;"><g transform="scale(0.56) translate(-256, 0)" style="animation-play-state: running; animation-delay: 0s;"><path fill="#F8B26A" d="M110.69,149.769c2.91,2.869,7.612,2.835,10.481-0.075c2.869-2.91,2.835-7.612-0.075-10.481
	s-7.612-2.835-10.481,0.075C107.746,142.199,107.78,146.9,110.69,149.769z M119.867,140.46c2.223,2.191,2.249,5.783,0.057,8.006
	c-2.191,2.223-5.783,2.249-8.006,0.057c-2.223-2.191-2.249-5.783-0.057-8.006C114.053,138.294,117.644,138.269,119.867,140.46z" data-fill="c1" style="fill: rgb(248, 178, 106); animation-play-state: running; animation-delay: 0s;"></path></g></g><g data-idx="2" dx="0" dy="0" style="transform-origin: 64.9001px 80.915px; animation: move-ltr-c2f782e7-4b9c-4010-9da4-87c1996ffbb8 1.66667s linear 0s infinite normal forwards running;"><g transform="scale(0.56) translate(0, 0)" style="animation-play-state: running; animation-delay: 0s;"><path fill="#F8B26A" d="M110.69,149.769c2.91,2.869,7.612,2.835,10.481-0.075c2.869-2.91,2.835-7.612-0.075-10.481
	s-7.612-2.835-10.481,0.075C107.746,142.199,107.78,146.9,110.69,149.769z M119.867,140.46c2.223,2.191,2.249,5.783,0.057,8.006
	c-2.191,2.223-5.783,2.249-8.006,0.057c-2.223-2.191-2.249-5.783-0.057-8.006C114.053,138.294,117.644,138.269,119.867,140.46z" data-fill="c1" style="fill: rgb(248, 178, 106); animation-play-state: running; animation-delay: 0s;"></path></g></g><g data-idx="3" dx="-256" dy="0" style="transform-origin: -73.5084px 59.5823px; animation: move-ltr-c2f782e7-4b9c-4010-9da4-87c1996ffbb8 1.25s linear 0s infinite normal forwards running;"><g transform="scale(0.56) translate(-256, 0)" style="animation-play-state: running; animation-delay: 0s;"><path fill="#333333" d="M115.899,105.355c-0.028,0.24,0.043,0.469,0.182,0.644s0.344,0.299,0.584,0.327l7.099,0.837l-0.837,7.099
	c-0.028,0.24,0.043,0.469,0.182,0.644c0.139,0.176,0.344,0.299,0.584,0.327c0.48,0.057,0.915-0.287,0.971-0.766l0.837-7.099
	l7.099,0.837c0.48,0.057,0.915-0.287,0.971-0.766c0.057-0.48-0.286-0.915-0.766-0.971l-7.099-0.837l0.837-7.099
	c0.057-0.48-0.286-0.915-0.766-0.971c-0.48-0.057-0.915,0.287-0.971,0.766l-0.837,7.099l-7.099-0.837
	C116.39,104.532,115.955,104.875,115.899,105.355z" data-fill="c3" style="fill: rgb(131, 131, 131); animation-play-state: running; animation-delay: 0s;"></path></g></g><g data-idx="3" dx="0" dy="0" style="transform-origin: 69.8516px 59.5823px; animation: move-ltr-c2f782e7-4b9c-4010-9da4-87c1996ffbb8 1.25s linear 0s infinite normal forwards running;"><g transform="scale(0.56) translate(0, 0)" style="animation-play-state: running; animation-delay: 0s;"><path fill="#333333" d="M115.899,105.355c-0.028,0.24,0.043,0.469,0.182,0.644s0.344,0.299,0.584,0.327l7.099,0.837l-0.837,7.099
	c-0.028,0.24,0.043,0.469,0.182,0.644c0.139,0.176,0.344,0.299,0.584,0.327c0.48,0.057,0.915-0.287,0.971-0.766l0.837-7.099
	l7.099,0.837c0.48,0.057,0.915-0.287,0.971-0.766c0.057-0.48-0.286-0.915-0.766-0.971l-7.099-0.837l0.837-7.099
	c0.057-0.48-0.286-0.915-0.766-0.971c-0.48-0.057-0.915,0.287-0.971,0.766l-0.837,7.099l-7.099-0.837
	C116.39,104.532,115.955,104.875,115.899,105.355z" data-fill="c3" style="fill: rgb(131, 131, 131); animation-play-state: running; animation-delay: 0s;"></path></g></g><g data-idx="4" dx="-256" dy="0" style="transform-origin: -128.945px 24.1107px; animation: move-ltr-c2f782e7-4b9c-4010-9da4-87c1996ffbb8 5s linear 0s infinite normal forwards running;"><g transform="scale(0.56) translate(-256, 0)" style="animation-play-state: running; animation-delay: 0s;"><path fill="#333333" d="M12.658,36.669c1.364,0.033,2.698,0.986,3.172,2.266c0.128,0.345,0.209,0.731,0.295,1.14
	c0.152,0.719,0.324,1.533,0.805,2.25c1.219,1.812,3.692,1.999,5.439,1.608c0.734-0.164,1.435-0.408,2.112-0.644
	c0.89-0.31,1.73-0.603,2.59-0.704c0.273-0.032,0.348-0.01,0.364-0.003c0.001,0,0.063,0.035,0.166,0.221
	c0.427,0.771,0.407,1.8,0.385,2.889c-0.029,1.456-0.062,3.106,1.104,4.324c1.058,1.103,2.808,1.445,4.924,0.954
	c1.924-0.447,3.766-1.323,5.327-2.533c0.382-0.296,0.451-0.846,0.156-1.228c-0.028-0.036-0.058-0.069-0.09-0.099
	c-0.308-0.292-0.792-0.324-1.138-0.056c-1.363,1.057-2.971,1.822-4.651,2.212c-0.863,0.2-2.432,0.405-3.264-0.459
	c-0.666-0.695-0.644-1.799-0.618-3.078c0.024-1.214,0.052-2.59-0.604-3.773c-0.25-0.451-0.551-0.758-0.921-0.941
	c-0.471-0.232-0.966-0.211-1.344-0.166c-1.049,0.124-2.021,0.462-2.96,0.789c-0.66,0.23-1.283,0.447-1.919,0.589
	c-1.305,0.292-2.924,0.136-3.606-0.878c-0.292-0.434-0.415-1.017-0.545-1.634c-0.096-0.453-0.194-0.921-0.367-1.387
	c-0.724-1.956-2.686-3.357-4.771-3.407c-0.483-0.012-0.884,0.37-0.896,0.854C11.792,36.256,12.174,36.657,12.658,36.669z" data-fill="c3" style="fill: rgb(131, 131, 131); animation-play-state: running; animation-delay: 0s;"></path></g></g><g data-idx="4" dx="0" dy="0" style="transform-origin: 14.4151px 24.1107px; animation: move-ltr-c2f782e7-4b9c-4010-9da4-87c1996ffbb8 5s linear 0s infinite normal forwards running;"><g transform="scale(0.56) translate(0, 0)" style="animation-play-state: running; animation-delay: 0s;"><path fill="#333333" d="M12.658,36.669c1.364,0.033,2.698,0.986,3.172,2.266c0.128,0.345,0.209,0.731,0.295,1.14
	c0.152,0.719,0.324,1.533,0.805,2.25c1.219,1.812,3.692,1.999,5.439,1.608c0.734-0.164,1.435-0.408,2.112-0.644
	c0.89-0.31,1.73-0.603,2.59-0.704c0.273-0.032,0.348-0.01,0.364-0.003c0.001,0,0.063,0.035,0.166,0.221
	c0.427,0.771,0.407,1.8,0.385,2.889c-0.029,1.456-0.062,3.106,1.104,4.324c1.058,1.103,2.808,1.445,4.924,0.954
	c1.924-0.447,3.766-1.323,5.327-2.533c0.382-0.296,0.451-0.846,0.156-1.228c-0.028-0.036-0.058-0.069-0.09-0.099
	c-0.308-0.292-0.792-0.324-1.138-0.056c-1.363,1.057-2.971,1.822-4.651,2.212c-0.863,0.2-2.432,0.405-3.264-0.459
	c-0.666-0.695-0.644-1.799-0.618-3.078c0.024-1.214,0.052-2.59-0.604-3.773c-0.25-0.451-0.551-0.758-0.921-0.941
	c-0.471-0.232-0.966-0.211-1.344-0.166c-1.049,0.124-2.021,0.462-2.96,0.789c-0.66,0.23-1.283,0.447-1.919,0.589
	c-1.305,0.292-2.924,0.136-3.606-0.878c-0.292-0.434-0.415-1.017-0.545-1.634c-0.096-0.453-0.194-0.921-0.367-1.387
	c-0.724-1.956-2.686-3.357-4.771-3.407c-0.483-0.012-0.884,0.37-0.896,0.854C11.792,36.256,12.174,36.657,12.658,36.669z" data-fill="c3" style="fill: rgb(131, 131, 131); animation-play-state: running; animation-delay: 0s;"></path></g></g><g data-idx="5" dx="-256" dy="0" style="transform-origin: -48.6861px 12.9156px; animation: move-ltr-c2f782e7-4b9c-4010-9da4-87c1996ffbb8 2.5s linear 0s infinite normal forwards running;"><g transform="scale(0.56) translate(-256, 0)" style="animation-play-state: running; animation-delay: 0s;"><path fill="#E15B64" d="M161.679,27.325c-0.183,0.254-0.216,0.586-0.087,0.871s0.399,0.48,0.71,0.511l13.342,1.34
	c0.311,0.031,0.615-0.106,0.798-0.36c0.183-0.254,0.216-0.586,0.087-0.871l-5.51-12.225c-0.128-0.285-0.399-0.48-0.71-0.511
	c-0.311-0.031-0.615,0.106-0.798,0.36L161.679,27.325z M174.311,28.154l-10.327-1.037l6.062-8.424L174.311,28.154z" data-fill="c2" style="fill: rgb(225, 91, 100); animation-play-state: running; animation-delay: 0s;"></path></g></g><g data-idx="5" dx="0" dy="0" style="transform-origin: 94.6739px 12.9156px; animation: move-ltr-c2f782e7-4b9c-4010-9da4-87c1996ffbb8 2.5s linear 0s infinite normal forwards running;"><g transform="scale(0.56) translate(0, 0)" style="animation-play-state: running; animation-delay: 0s;"><path fill="#E15B64" d="M161.679,27.325c-0.183,0.254-0.216,0.586-0.087,0.871s0.399,0.48,0.71,0.511l13.342,1.34
	c0.311,0.031,0.615-0.106,0.798-0.36c0.183-0.254,0.216-0.586,0.087-0.871l-5.51-12.225c-0.128-0.285-0.399-0.48-0.71-0.511
	c-0.311-0.031-0.615,0.106-0.798,0.36L161.679,27.325z M174.311,28.154l-10.327-1.037l6.062-8.424L174.311,28.154z" data-fill="c2" style="fill: rgb(225, 91, 100); animation-play-state: running; animation-delay: 0s;"></path></g></g><g data-idx="6" dx="-256" dy="0" style="transform-origin: -35.4749px 128.271px; animation: move-ltr-c2f782e7-4b9c-4010-9da4-87c1996ffbb8 1.66667s linear 0s infinite normal forwards running;"><g transform="scale(0.56) translate(-256, 0)" style="animation-play-state: running; animation-delay: 0s;"><path fill="#333333" d="M193.976,237.442l7.166-8.478c0.312-0.369,0.266-0.921-0.103-1.233l-8.478-7.166
	c-0.369-0.312-0.921-0.266-1.233,0.103l-7.166,8.478c-0.312,0.369-0.266,0.921,0.103,1.233l8.478,7.166
	C193.112,237.858,193.664,237.811,193.976,237.442z M186.063,229.608l6.036-7.142l7.142,6.036l-6.036,7.142L186.063,229.608z" data-fill="c3" style="fill: rgb(131, 131, 131); animation-play-state: running; animation-delay: 0s;"></path></g></g><g data-idx="6" dx="0" dy="0" style="transform-origin: 107.885px 128.271px; animation: move-ltr-c2f782e7-4b9c-4010-9da4-87c1996ffbb8 1.66667s linear 0s infinite normal forwards running;"><g transform="scale(0.56) translate(0, 0)" style="animation-play-state: running; animation-delay: 0s;"><path fill="#333333" d="M193.976,237.442l7.166-8.478c0.312-0.369,0.266-0.921-0.103-1.233l-8.478-7.166
	c-0.369-0.312-0.921-0.266-1.233,0.103l-7.166,8.478c-0.312,0.369-0.266,0.921,0.103,1.233l8.478,7.166
	C193.112,237.858,193.664,237.811,193.976,237.442z M186.063,229.608l6.036-7.142l7.142,6.036l-6.036,7.142L186.063,229.608z" data-fill="c3" style="fill: rgb(131, 131, 131); animation-play-state: running; animation-delay: 0s;"></path></g></g><g data-idx="7" dx="-256" dy="0" style="transform-origin: -107.765px 125.736px; animation: move-ltr-c2f782e7-4b9c-4010-9da4-87c1996ffbb8 1.25s linear 0s infinite normal forwards running;"><g transform="scale(0.56) translate(-256, 0)" style="animation-play-state: running; animation-delay: 0s;"><path fill="#E15B64" d="M56.5,226.773c1.238,3.894,5.413,6.056,9.308,4.818c3.894-1.238,6.056-5.413,4.818-9.308
	s-5.413-6.056-9.308-4.818S55.262,222.879,56.5,226.773z M68.958,222.814c0.945,2.975-0.706,6.164-3.681,7.11
	c-2.975,0.945-6.164-0.706-7.11-3.681s0.706-6.164,3.681-7.11S68.013,219.839,68.958,222.814z" data-fill="c2" style="fill: rgb(225, 91, 100); animation-play-state: running; animation-delay: 0s;"></path></g></g><g data-idx="7" dx="0" dy="0" style="transform-origin: 35.5953px 125.736px; animation: move-ltr-c2f782e7-4b9c-4010-9da4-87c1996ffbb8 1.25s linear 0s infinite normal forwards running;"><g transform="scale(0.56) translate(0, 0)" style="animation-play-state: running; animation-delay: 0s;"><path fill="#E15B64" d="M56.5,226.773c1.238,3.894,5.413,6.056,9.308,4.818c3.894-1.238,6.056-5.413,4.818-9.308
	s-5.413-6.056-9.308-4.818S55.262,222.879,56.5,226.773z M68.958,222.814c0.945,2.975-0.706,6.164-3.681,7.11
	c-2.975,0.945-6.164-0.706-7.11-3.681s0.706-6.164,3.681-7.11S68.013,219.839,68.958,222.814z" data-fill="c2" style="fill: rgb(225, 91, 100); animation-play-state: running; animation-delay: 0s;"></path></g></g><g data-idx="8" dx="-256" dy="0" style="transform-origin: -40.3458px 82.9344px; animation: move-ltr-c2f782e7-4b9c-4010-9da4-87c1996ffbb8 5s linear 0s infinite normal forwards running;"><g transform="scale(0.56) translate(-256, 0)" style="animation-play-state: running; animation-delay: 0s;"><path fill="#F8B26A" d="M175.089,148.857c0.021,0.241,0.137,0.45,0.308,0.595c0.171,0.144,0.398,0.223,0.638,0.202l7.122-0.611
	l0.611,7.122c0.021,0.241,0.137,0.45,0.308,0.595c0.171,0.144,0.398,0.223,0.638,0.202c0.481-0.041,0.838-0.465,0.797-0.946
	l-0.611-7.122l7.122-0.611c0.481-0.041,0.838-0.465,0.797-0.946c-0.041-0.482-0.465-0.838-0.946-0.797l-7.122,0.611l-0.611-7.122
	c-0.041-0.482-0.465-0.838-0.946-0.797c-0.481,0.041-0.838,0.465-0.797,0.946l0.611,7.122l-7.122,0.611
	C175.405,147.952,175.048,148.376,175.089,148.857z" data-fill="c1" style="fill: rgb(248, 178, 106); animation-play-state: running; animation-delay: 0s;"></path></g></g><g data-idx="8" dx="0" dy="0" style="transform-origin: 103.014px 82.9344px; animation: move-ltr-c2f782e7-4b9c-4010-9da4-87c1996ffbb8 5s linear 0s infinite normal forwards running;"><g transform="scale(0.56) translate(0, 0)" style="animation-play-state: running; animation-delay: 0s;"><path fill="#F8B26A" d="M175.089,148.857c0.021,0.241,0.137,0.45,0.308,0.595c0.171,0.144,0.398,0.223,0.638,0.202l7.122-0.611
	l0.611,7.122c0.021,0.241,0.137,0.45,0.308,0.595c0.171,0.144,0.398,0.223,0.638,0.202c0.481-0.041,0.838-0.465,0.797-0.946
	l-0.611-7.122l7.122-0.611c0.481-0.041,0.838-0.465,0.797-0.946c-0.041-0.482-0.465-0.838-0.946-0.797l-7.122,0.611l-0.611-7.122
	c-0.041-0.482-0.465-0.838-0.946-0.797c-0.481,0.041-0.838,0.465-0.797,0.946l0.611,7.122l-7.122,0.611
	C175.405,147.952,175.048,148.376,175.089,148.857z" data-fill="c1" style="fill: rgb(248, 178, 106); animation-play-state: running; animation-delay: 0s;"></path></g></g><g data-idx="9" dx="-256" dy="0" style="transform-origin: -42.1915px 43.1595px; animation: move-ltr-c2f782e7-4b9c-4010-9da4-87c1996ffbb8 2.5s linear 0s infinite normal forwards running;"><g transform="scale(0.56) translate(-256, 0)" style="animation-play-state: running; animation-delay: 0s;"><path fill="#333333" d="M190.994,67.396c-0.61,1.22-2.039,2.023-3.4,1.907c-0.367-0.031-0.751-0.121-1.158-0.217
	c-0.715-0.168-1.525-0.359-2.379-0.228c-2.158,0.333-3.38,2.492-3.769,4.239c-0.164,0.734-0.241,1.472-0.315,2.186
	c-0.098,0.937-0.19,1.822-0.464,2.644c-0.087,0.261-0.139,0.319-0.153,0.331c0,0.001-0.059,0.042-0.27,0.056
	c-0.879,0.059-1.802-0.397-2.778-0.88c-1.305-0.646-2.785-1.377-4.383-0.839c-1.448,0.488-2.502,1.927-2.957,4.051
	c-0.414,1.931-0.404,3.971,0.028,5.899c0.106,0.472,0.574,0.768,1.045,0.663c0.045-0.01,0.087-0.023,0.128-0.039
	c0.396-0.155,0.63-0.579,0.535-1.006c-0.377-1.683-0.385-3.464-0.024-5.15c0.185-0.866,0.667-2.373,1.804-2.759
	c0.913-0.307,1.902,0.182,3.049,0.749c1.088,0.538,2.322,1.148,3.672,1.057c0.514-0.035,0.92-0.176,1.243-0.434
	c0.411-0.327,0.602-0.785,0.722-1.146c0.334-1.003,0.441-2.026,0.544-3.015c0.073-0.695,0.141-1.351,0.283-1.987
	c0.291-1.305,1.12-2.704,2.328-2.89c0.516-0.08,1.096,0.057,1.71,0.202c0.45,0.106,0.916,0.216,1.411,0.258
	c2.078,0.176,4.18-1.003,5.113-2.869c0.216-0.432,0.041-0.958-0.392-1.174C191.736,66.788,191.21,66.963,190.994,67.396z" data-fill="c3" style="fill: rgb(131, 131, 131); animation-play-state: running; animation-delay: 0s;"></path></g></g><g data-idx="9" dx="0" dy="0" style="transform-origin: 101.169px 43.1595px; animation: move-ltr-c2f782e7-4b9c-4010-9da4-87c1996ffbb8 2.5s linear 0s infinite normal forwards running;"><g transform="scale(0.56) translate(0, 0)" style="animation-play-state: running; animation-delay: 0s;"><path fill="#333333" d="M190.994,67.396c-0.61,1.22-2.039,2.023-3.4,1.907c-0.367-0.031-0.751-0.121-1.158-0.217
	c-0.715-0.168-1.525-0.359-2.379-0.228c-2.158,0.333-3.38,2.492-3.769,4.239c-0.164,0.734-0.241,1.472-0.315,2.186
	c-0.098,0.937-0.19,1.822-0.464,2.644c-0.087,0.261-0.139,0.319-0.153,0.331c0,0.001-0.059,0.042-0.27,0.056
	c-0.879,0.059-1.802-0.397-2.778-0.88c-1.305-0.646-2.785-1.377-4.383-0.839c-1.448,0.488-2.502,1.927-2.957,4.051
	c-0.414,1.931-0.404,3.971,0.028,5.899c0.106,0.472,0.574,0.768,1.045,0.663c0.045-0.01,0.087-0.023,0.128-0.039
	c0.396-0.155,0.63-0.579,0.535-1.006c-0.377-1.683-0.385-3.464-0.024-5.15c0.185-0.866,0.667-2.373,1.804-2.759
	c0.913-0.307,1.902,0.182,3.049,0.749c1.088,0.538,2.322,1.148,3.672,1.057c0.514-0.035,0.92-0.176,1.243-0.434
	c0.411-0.327,0.602-0.785,0.722-1.146c0.334-1.003,0.441-2.026,0.544-3.015c0.073-0.695,0.141-1.351,0.283-1.987
	c0.291-1.305,1.12-2.704,2.328-2.89c0.516-0.08,1.096,0.057,1.71,0.202c0.45,0.106,0.916,0.216,1.411,0.258
	c2.078,0.176,4.18-1.003,5.113-2.869c0.216-0.432,0.041-0.958-0.392-1.174C191.736,66.788,191.21,66.963,190.994,67.396z" data-fill="c3" style="fill: rgb(131, 131, 131); animation-play-state: running; animation-delay: 0s;"></path></g></g><g data-idx="10" dx="-256" dy="0" style="transform-origin: -57.0819px 103.288px; animation: move-ltr-c2f782e7-4b9c-4010-9da4-87c1996ffbb8 1.66667s linear 0s infinite normal forwards running;"><g transform="scale(0.56) translate(-256, 0)" style="animation-play-state: running; animation-delay: 0s;"><path fill="#333333" d="M161.469,178.366c0.1-0.296,0.033-0.623-0.173-0.858s-0.523-0.341-0.829-0.279l-13.144,2.656
	c-0.306,0.062-0.556,0.283-0.656,0.579c-0.1,0.296-0.033,0.623,0.173,0.858l8.873,10.055c0.207,0.234,0.523,0.341,0.829,0.279
	c0.306-0.062,0.556-0.283,0.656-0.579L161.469,178.366z M149.155,181.302l10.173-2.056l-3.306,9.838L149.155,181.302z" data-fill="c3" style="fill: rgb(131, 131, 131); animation-play-state: running; animation-delay: 0s;"></path></g></g><g data-idx="10" dx="0" dy="0" style="transform-origin: 86.2781px 103.288px; animation: move-ltr-c2f782e7-4b9c-4010-9da4-87c1996ffbb8 1.66667s linear 0s infinite normal forwards running;"><g transform="scale(0.56) translate(0, 0)" style="animation-play-state: running; animation-delay: 0s;"><path fill="#333333" d="M161.469,178.366c0.1-0.296,0.033-0.623-0.173-0.858s-0.523-0.341-0.829-0.279l-13.144,2.656
	c-0.306,0.062-0.556,0.283-0.656,0.579c-0.1,0.296-0.033,0.623,0.173,0.858l8.873,10.055c0.207,0.234,0.523,0.341,0.829,0.279
	c0.306-0.062,0.556-0.283,0.656-0.579L161.469,178.366z M149.155,181.302l10.173-2.056l-3.306,9.838L149.155,181.302z" data-fill="c3" style="fill: rgb(131, 131, 131); animation-play-state: running; animation-delay: 0s;"></path></g></g><g data-idx="11" dx="-256" dy="0" style="transform-origin: -25.874px 59.5826px; animation: move-ltr-c2f782e7-4b9c-4010-9da4-87c1996ffbb8 1.25s linear 0s infinite normal forwards running;"><g transform="scale(0.56) translate(-256, 0)" style="animation-play-state: running; animation-delay: 0s;"><path fill="#E15B64" d="M211.433,98.066l-9.642,5.501c-0.42,0.239-0.566,0.774-0.326,1.194l5.501,9.642
	c0.239,0.42,0.774,0.566,1.194,0.326l9.642-5.501c0.42-0.239,0.566-0.774,0.326-1.194l-5.501-9.642
	C212.387,97.972,211.853,97.826,211.433,98.066z M216.174,108.142l-8.122,4.634l-4.634-8.122l8.122-4.634L216.174,108.142z" data-fill="c2" style="fill: rgb(225, 91, 100); animation-play-state: running; animation-delay: 0s;"></path></g></g><g data-idx="11" dx="0" dy="0" style="transform-origin: 117.486px 59.5826px; animation: move-ltr-c2f782e7-4b9c-4010-9da4-87c1996ffbb8 1.25s linear 0s infinite normal forwards running;"><g transform="scale(0.56) translate(0, 0)" style="animation-play-state: running; animation-delay: 0s;"><path fill="#E15B64" d="M211.433,98.066l-9.642,5.501c-0.42,0.239-0.566,0.774-0.326,1.194l5.501,9.642
	c0.239,0.42,0.774,0.566,1.194,0.326l9.642-5.501c0.42-0.239,0.566-0.774,0.326-1.194l-5.501-9.642
	C212.387,97.972,211.853,97.826,211.433,98.066z M216.174,108.142l-8.122,4.634l-4.634-8.122l8.122-4.634L216.174,108.142z" data-fill="c2" style="fill: rgb(225, 91, 100); animation-play-state: running; animation-delay: 0s;"></path></g></g><g data-idx="12" dx="-256" dy="0" style="transform-origin: -16.8804px 112.586px; animation: move-ltr-c2f782e7-4b9c-4010-9da4-87c1996ffbb8 5s linear 0s infinite normal forwards running;"><g transform="scale(0.56) translate(-256, 0)" style="animation-play-state: running; animation-delay: 0s;"><path fill="#F8B26A" d="M226.214,208.449c4.082-0.197,7.242-3.678,7.045-7.76c-0.197-4.082-3.678-7.242-7.76-7.045
	c-4.082,0.197-7.242,3.678-7.045,7.76C218.651,205.486,222.132,208.646,226.214,208.449z M225.583,195.392
	c3.118-0.151,5.777,2.264,5.928,5.381c0.151,3.118-2.264,5.777-5.381,5.928c-3.118,0.151-5.777-2.264-5.928-5.381
	C220.051,198.202,222.466,195.543,225.583,195.392z" data-fill="c1" style="fill: rgb(248, 178, 106); animation-play-state: running; animation-delay: 0s;"></path></g></g><g data-idx="12" dx="0" dy="0" style="transform-origin: 126.48px 112.586px; animation: move-ltr-c2f782e7-4b9c-4010-9da4-87c1996ffbb8 5s linear 0s infinite normal forwards running;"><g transform="scale(0.56) translate(0, 0)" style="animation-play-state: running; animation-delay: 0s;"><path fill="#F8B26A" d="M226.214,208.449c4.082-0.197,7.242-3.678,7.045-7.76c-0.197-4.082-3.678-7.242-7.76-7.045
	c-4.082,0.197-7.242,3.678-7.045,7.76C218.651,205.486,222.132,208.646,226.214,208.449z M225.583,195.392
	c3.118-0.151,5.777,2.264,5.928,5.381c0.151,3.118-2.264,5.777-5.381,5.928c-3.118,0.151-5.777-2.264-5.928-5.381
	C220.051,198.202,222.466,195.543,225.583,195.392z" data-fill="c1" style="fill: rgb(248, 178, 106); animation-play-state: running; animation-delay: 0s;"></path></g></g><g data-idx="13" dx="-256" dy="0" style="transform-origin: -17.6434px 28.223px; animation: move-ltr-c2f782e7-4b9c-4010-9da4-87c1996ffbb8 2.5s linear 0s infinite normal forwards running;"><g transform="scale(0.56) translate(-256, 0)" style="animation-play-state: running; animation-delay: 0s;"><path fill="#F8B26A" d="M227.01,41.863c-0.232-0.068-0.469-0.036-0.666,0.071c-0.197,0.107-0.352,0.289-0.421,0.521l-2.02,6.857
	l-6.857-2.02c-0.232-0.068-0.469-0.036-0.666,0.071c-0.197,0.107-0.352,0.289-0.421,0.521c-0.137,0.463,0.128,0.95,0.592,1.086
	l6.857,2.02l-2.02,6.857c-0.137,0.463,0.128,0.95,0.592,1.086c0.464,0.137,0.95-0.128,1.086-0.592l2.02-6.857l6.857,2.02
	c0.464,0.137,0.95-0.128,1.086-0.592c0.137-0.463-0.128-0.95-0.592-1.086l-6.857-2.02l2.02-6.857
	C227.739,42.486,227.474,41.999,227.01,41.863z" data-fill="c1" style="fill: rgb(248, 178, 106); animation-play-state: running; animation-delay: 0s;"></path></g></g><g data-idx="13" dx="0" dy="0" style="transform-origin: 125.717px 28.223px; animation: move-ltr-c2f782e7-4b9c-4010-9da4-87c1996ffbb8 2.5s linear 0s infinite normal forwards running;"><g transform="scale(0.56) translate(0, 0)" style="animation-play-state: running; animation-delay: 0s;"><path fill="#F8B26A" d="M227.01,41.863c-0.232-0.068-0.469-0.036-0.666,0.071c-0.197,0.107-0.352,0.289-0.421,0.521l-2.02,6.857
	l-6.857-2.02c-0.232-0.068-0.469-0.036-0.666,0.071c-0.197,0.107-0.352,0.289-0.421,0.521c-0.137,0.463,0.128,0.95,0.592,1.086
	l6.857,2.02l-2.02,6.857c-0.137,0.463,0.128,0.95,0.592,1.086c0.464,0.137,0.95-0.128,1.086-0.592l2.02-6.857l6.857,2.02
	c0.464,0.137,0.95-0.128,1.086-0.592c0.137-0.463-0.128-0.95-0.592-1.086l-6.857-2.02l2.02-6.857
	C227.739,42.486,227.474,41.999,227.01,41.863z" data-fill="c1" style="fill: rgb(248, 178, 106); animation-play-state: running; animation-delay: 0s;"></path></g></g><g data-idx="14" dx="-256" dy="0" style="transform-origin: -9.70293px 80.6788px; animation: move-ltr-c2f782e7-4b9c-4010-9da4-87c1996ffbb8 1.66667s linear 0s infinite normal forwards running;"><g transform="scale(0.56) translate(-256, 0)" style="animation-play-state: running; animation-delay: 0s;"><path fill="#333333" d="M247.517,132.775c-0.389,1.308-1.657,2.346-3.017,2.468c-0.367,0.033-0.761,0.011-1.178-0.013
	c-0.733-0.042-1.565-0.089-2.382,0.189c-2.068,0.702-2.896,3.04-2.976,4.829c-0.034,0.751,0.018,1.492,0.069,2.207
	c0.066,0.94,0.129,1.828,0.002,2.684c-0.041,0.272-0.082,0.339-0.093,0.352c0,0.001-0.051,0.052-0.256,0.102
	c-0.856,0.211-1.843-0.078-2.889-0.384c-1.398-0.409-2.982-0.873-4.462-0.066c-1.342,0.732-2.129,2.332-2.209,4.503
	c-0.072,1.974,0.291,3.981,1.051,5.804c0.186,0.446,0.698,0.657,1.144,0.471c0.042-0.018,0.082-0.038,0.119-0.061
	c0.363-0.221,0.52-0.679,0.352-1.083c-0.663-1.592-0.981-3.344-0.918-5.067c0.032-0.885,0.245-2.453,1.298-3.03
	c0.845-0.461,1.905-0.151,3.133,0.209c1.165,0.341,2.486,0.728,3.799,0.404c0.5-0.123,0.876-0.333,1.149-0.643
	c0.348-0.394,0.456-0.877,0.512-1.254c0.155-1.045,0.083-2.071,0.013-3.063c-0.049-0.697-0.096-1.355-0.066-2.006
	c0.06-1.335,0.634-2.858,1.791-3.25c0.495-0.168,1.09-0.134,1.719-0.098c0.462,0.026,0.939,0.053,1.434,0.009
	c2.077-0.187,3.943-1.714,4.537-3.713c0.138-0.463-0.126-0.95-0.589-1.088C248.142,132.048,247.655,132.312,247.517,132.775z" data-fill="c3" style="fill: rgb(131, 131, 131); animation-play-state: running; animation-delay: 0s;"></path></g></g><g data-idx="14" dx="0" dy="0" style="transform-origin: 133.657px 80.6788px; animation: move-ltr-c2f782e7-4b9c-4010-9da4-87c1996ffbb8 1.66667s linear 0s infinite normal forwards running;"><g transform="scale(0.56) translate(0, 0)" style="animation-play-state: running; animation-delay: 0s;"><path fill="#333333" d="M247.517,132.775c-0.389,1.308-1.657,2.346-3.017,2.468c-0.367,0.033-0.761,0.011-1.178-0.013
	c-0.733-0.042-1.565-0.089-2.382,0.189c-2.068,0.702-2.896,3.04-2.976,4.829c-0.034,0.751,0.018,1.492,0.069,2.207
	c0.066,0.94,0.129,1.828,0.002,2.684c-0.041,0.272-0.082,0.339-0.093,0.352c0,0.001-0.051,0.052-0.256,0.102
	c-0.856,0.211-1.843-0.078-2.889-0.384c-1.398-0.409-2.982-0.873-4.462-0.066c-1.342,0.732-2.129,2.332-2.209,4.503
	c-0.072,1.974,0.291,3.981,1.051,5.804c0.186,0.446,0.698,0.657,1.144,0.471c0.042-0.018,0.082-0.038,0.119-0.061
	c0.363-0.221,0.52-0.679,0.352-1.083c-0.663-1.592-0.981-3.344-0.918-5.067c0.032-0.885,0.245-2.453,1.298-3.03
	c0.845-0.461,1.905-0.151,3.133,0.209c1.165,0.341,2.486,0.728,3.799,0.404c0.5-0.123,0.876-0.333,1.149-0.643
	c0.348-0.394,0.456-0.877,0.512-1.254c0.155-1.045,0.083-2.071,0.013-3.063c-0.049-0.697-0.096-1.355-0.066-2.006
	c0.06-1.335,0.634-2.858,1.791-3.25c0.495-0.168,1.09-0.134,1.719-0.098c0.462,0.026,0.939,0.053,1.434,0.009
	c2.077-0.187,3.943-1.714,4.537-3.713c0.138-0.463-0.126-0.95-0.589-1.088C248.142,132.048,247.655,132.312,247.517,132.775z" data-fill="c3" style="fill: rgb(131, 131, 131); animation-play-state: running; animation-delay: 0s;"></path></g></g><g data-idx="15" dx="-256" dy="0" style="transform-origin: -102.323px 55.0712px; animation: move-ltr-c2f782e7-4b9c-4010-9da4-87c1996ffbb8 1.25s linear 0s infinite normal forwards running;"><g transform="scale(0.56) translate(-256, 0)" style="animation-play-state: running; animation-delay: 0s;"><path fill="#333333" d="M79.442,105.709c0.299,0.091,0.624,0.015,0.852-0.199c0.228-0.214,0.325-0.533,0.254-0.837l-3.043-13.06
	c-0.071-0.304-0.299-0.548-0.598-0.639c-0.299-0.091-0.624-0.015-0.852,0.199l-9.789,9.165c-0.228,0.214-0.325,0.533-0.254,0.837
	c0.071,0.304,0.299,0.548,0.598,0.639L79.442,105.709z M76.145,93.487l2.355,10.108l-9.931-3.015L76.145,93.487z" data-fill="c3" style="fill: rgb(131, 131, 131); animation-play-state: running; animation-delay: 0s;"></path></g></g><g data-idx="15" dx="0" dy="0" style="transform-origin: 41.0368px 55.0712px; animation: move-ltr-c2f782e7-4b9c-4010-9da4-87c1996ffbb8 1.25s linear 0s infinite normal forwards running;"><g transform="scale(0.56) translate(0, 0)" style="animation-play-state: running; animation-delay: 0s;"><path fill="#333333" d="M79.442,105.709c0.299,0.091,0.624,0.015,0.852-0.199c0.228-0.214,0.325-0.533,0.254-0.837l-3.043-13.06
	c-0.071-0.304-0.299-0.548-0.598-0.639c-0.299-0.091-0.624-0.015-0.852,0.199l-9.789,9.165c-0.228,0.214-0.325,0.533-0.254,0.837
	c0.071,0.304,0.299,0.548,0.598,0.639L79.442,105.709z M76.145,93.487l2.355,10.108l-9.931-3.015L76.145,93.487z" data-fill="c3" style="fill: rgb(131, 131, 131); animation-play-state: running; animation-delay: 0s;"></path></g></g><g data-idx="16" dx="-256" dy="0" style="transform-origin: -74.7743px 35.9212px; animation: move-ltr-c2f782e7-4b9c-4010-9da4-87c1996ffbb8 5s linear 0s infinite normal forwards running;"><g transform="scale(0.56) translate(-256, 0)" style="animation-play-state: running; animation-delay: 0s;"><path fill="#F8B26A" d="M114.091,65.495l8.5,7.14c0.37,0.311,0.922,0.263,1.233-0.107l7.14-8.5c0.311-0.37,0.263-0.922-0.107-1.233
	l-8.5-7.14c-0.37-0.311-0.922-0.263-1.233,0.107l-7.14,8.5C113.674,64.632,113.722,65.184,114.091,65.495z M121.902,57.558
	l7.16,6.015l-6.015,7.16l-7.16-6.015L121.902,57.558z" data-fill="c1" style="fill: rgb(248, 178, 106); animation-play-state: running; animation-delay: 0s;"></path></g></g><g data-idx="16" dx="0" dy="0" style="transform-origin: 68.5856px 35.9212px; animation: move-ltr-c2f782e7-4b9c-4010-9da4-87c1996ffbb8 5s linear 0s infinite normal forwards running;"><g transform="scale(0.56) translate(0, 0)" style="animation-play-state: running; animation-delay: 0s;"><path fill="#F8B26A" d="M114.091,65.495l8.5,7.14c0.37,0.311,0.922,0.263,1.233-0.107l7.14-8.5c0.311-0.37,0.263-0.922-0.107-1.233
	l-8.5-7.14c-0.37-0.311-0.922-0.263-1.233,0.107l-7.14,8.5C113.674,64.632,113.722,65.184,114.091,65.495z M121.902,57.558
	l7.16,6.015l-6.015,7.16l-7.16-6.015L121.902,57.558z" data-fill="c1" style="fill: rgb(248, 178, 106); animation-play-state: running; animation-delay: 0s;"></path></g></g><g data-idx="17" dx="-256" dy="0" style="transform-origin: -92.9244px 22.5565px; animation: move-ltr-c2f782e7-4b9c-4010-9da4-87c1996ffbb8 2.5s linear 0s infinite normal forwards running;"><g transform="scale(0.56) translate(-256, 0)" style="animation-play-state: running; animation-delay: 0s;"><path fill="#333333" d="M94.797,34.577c-3.144-2.61-7.826-2.175-10.436,0.969c-2.61,3.144-2.175,7.826,0.969,10.436
	s7.826,2.175,10.436-0.969C98.376,41.869,97.941,37.187,94.797,34.577z M86.448,44.635c-2.402-1.994-2.734-5.57-0.74-7.972
	s5.57-2.734,7.972-0.74c2.402,1.994,2.734,5.57,0.74,7.972S88.849,46.629,86.448,44.635z" data-fill="c3" style="fill: rgb(131, 131, 131); animation-play-state: running; animation-delay: 0s;"></path></g></g><g data-idx="17" dx="0" dy="0" style="transform-origin: 50.4356px 22.5565px; animation: move-ltr-c2f782e7-4b9c-4010-9da4-87c1996ffbb8 2.5s linear 0s infinite normal forwards running;"><g transform="scale(0.56) translate(0, 0)" style="animation-play-state: running; animation-delay: 0s;"><path fill="#333333" d="M94.797,34.577c-3.144-2.61-7.826-2.175-10.436,0.969c-2.61,3.144-2.175,7.826,0.969,10.436
	s7.826,2.175,10.436-0.969C98.376,41.869,97.941,37.187,94.797,34.577z M86.448,44.635c-2.402-1.994-2.734-5.57-0.74-7.972
	s5.57-2.734,7.972-0.74c2.402,1.994,2.734,5.57,0.74,7.972S88.849,46.629,86.448,44.635z" data-fill="c3" style="fill: rgb(131, 131, 131); animation-play-state: running; animation-delay: 0s;"></path></g></g><g data-idx="18" dx="-256" dy="0" style="transform-origin: -73.9295px 137.097px; animation: move-ltr-c2f782e7-4b9c-4010-9da4-87c1996ffbb8 1.66667s linear 0s infinite normal forwards running;"><g transform="scale(0.56) translate(-256, 0)" style="animation-play-state: running; animation-delay: 0s;"><path fill="#333333" d="M116.513,249.651c0.131,0.203,0.332,0.333,0.551,0.38c0.219,0.047,0.456,0.01,0.659-0.121l6.001-3.884
	l3.884,6.001c0.131,0.203,0.332,0.333,0.551,0.38c0.219,0.047,0.456,0.01,0.659-0.121c0.406-0.262,0.522-0.804,0.259-1.21
	l-3.884-6.001l6.001-3.884c0.406-0.262,0.522-0.804,0.259-1.21c-0.263-0.406-0.804-0.522-1.21-0.259l-6.001,3.884l-3.884-6.001
	c-0.263-0.406-0.804-0.522-1.21-0.259c-0.406,0.262-0.522,0.804-0.259,1.21l3.884,6.001l-6.001,3.884
	C116.366,248.704,116.25,249.246,116.513,249.651z" data-fill="c3" style="fill: rgb(131, 131, 131); animation-play-state: running; animation-delay: 0s;"></path></g></g><g data-idx="18" dx="0" dy="0" style="transform-origin: 69.4305px 137.097px; animation: move-ltr-c2f782e7-4b9c-4010-9da4-87c1996ffbb8 1.66667s linear 0s infinite normal forwards running;"><g transform="scale(0.56) translate(0, 0)" style="animation-play-state: running; animation-delay: 0s;"><path fill="#333333" d="M116.513,249.651c0.131,0.203,0.332,0.333,0.551,0.38c0.219,0.047,0.456,0.01,0.659-0.121l6.001-3.884
	l3.884,6.001c0.131,0.203,0.332,0.333,0.551,0.38c0.219,0.047,0.456,0.01,0.659-0.121c0.406-0.262,0.522-0.804,0.259-1.21
	l-3.884-6.001l6.001-3.884c0.406-0.262,0.522-0.804,0.259-1.21c-0.263-0.406-0.804-0.522-1.21-0.259l-6.001,3.884l-3.884-6.001
	c-0.263-0.406-0.804-0.522-1.21-0.259c-0.406,0.262-0.522,0.804-0.259,1.21l3.884,6.001l-6.001,3.884
	C116.366,248.704,116.25,249.246,116.513,249.651z" data-fill="c3" style="fill: rgb(131, 131, 131); animation-play-state: running; animation-delay: 0s;"></path></g></g><g data-idx="19" dx="-256" dy="0" style="transform-origin: -102.324px 100.5px; animation: move-ltr-c2f782e7-4b9c-4010-9da4-87c1996ffbb8 1.25s linear 0s infinite normal forwards running;"><g transform="scale(0.56) translate(-256, 0)" style="animation-play-state: running; animation-delay: 0s;"><path fill="#333333" d="M86.79,176.603c-1.107,0.797-2.746,0.844-3.897,0.11c-0.311-0.198-0.609-0.456-0.924-0.73
	c-0.555-0.481-1.184-1.027-2.001-1.306c-2.066-0.708-4.15,0.636-5.307,2.003c-0.486,0.574-0.897,1.192-1.295,1.789
	c-0.522,0.784-1.015,1.525-1.639,2.126c-0.198,0.19-0.272,0.218-0.289,0.222c0,0-0.072,0.01-0.265-0.076
	c-0.806-0.356-1.411-1.189-2.052-2.07c-0.856-1.178-1.827-2.513-3.491-2.779c-1.509-0.241-3.111,0.544-4.501,2.214
	c-1.263,1.518-2.202,3.329-2.716,5.236c-0.126,0.467,0.151,0.947,0.618,1.073c0.044,0.012,0.088,0.02,0.132,0.025
	c0.422,0.047,0.827-0.22,0.941-0.642c0.448-1.666,1.268-3.246,2.371-4.572c0.567-0.681,1.693-1.792,2.879-1.605
	c0.951,0.152,1.6,1.045,2.352,2.08c0.714,0.982,1.523,2.095,2.76,2.642c0.471,0.208,0.897,0.271,1.303,0.194
	c0.516-0.099,0.897-0.415,1.172-0.679c0.762-0.733,1.331-1.589,1.883-2.417c0.387-0.582,0.753-1.131,1.173-1.628
	c0.864-1.02,2.248-1.874,3.404-1.478c0.494,0.169,0.944,0.56,1.421,0.973c0.35,0.303,0.711,0.616,1.13,0.884
	c1.758,1.121,4.168,1.053,5.86-0.165c0.392-0.282,0.481-0.829,0.199-1.221C87.729,176.409,87.182,176.32,86.79,176.603z" data-fill="c3" style="fill: rgb(131, 131, 131); animation-play-state: running; animation-delay: 0s;"></path></g></g><g data-idx="19" dx="0" dy="0" style="transform-origin: 41.0363px 100.5px; animation: move-ltr-c2f782e7-4b9c-4010-9da4-87c1996ffbb8 1.25s linear 0s infinite normal forwards running;"><g transform="scale(0.56) translate(0, 0)" style="animation-play-state: running; animation-delay: 0s;"><path fill="#333333" d="M86.79,176.603c-1.107,0.797-2.746,0.844-3.897,0.11c-0.311-0.198-0.609-0.456-0.924-0.73
	c-0.555-0.481-1.184-1.027-2.001-1.306c-2.066-0.708-4.15,0.636-5.307,2.003c-0.486,0.574-0.897,1.192-1.295,1.789
	c-0.522,0.784-1.015,1.525-1.639,2.126c-0.198,0.19-0.272,0.218-0.289,0.222c0,0-0.072,0.01-0.265-0.076
	c-0.806-0.356-1.411-1.189-2.052-2.07c-0.856-1.178-1.827-2.513-3.491-2.779c-1.509-0.241-3.111,0.544-4.501,2.214
	c-1.263,1.518-2.202,3.329-2.716,5.236c-0.126,0.467,0.151,0.947,0.618,1.073c0.044,0.012,0.088,0.02,0.132,0.025
	c0.422,0.047,0.827-0.22,0.941-0.642c0.448-1.666,1.268-3.246,2.371-4.572c0.567-0.681,1.693-1.792,2.879-1.605
	c0.951,0.152,1.6,1.045,2.352,2.08c0.714,0.982,1.523,2.095,2.76,2.642c0.471,0.208,0.897,0.271,1.303,0.194
	c0.516-0.099,0.897-0.415,1.172-0.679c0.762-0.733,1.331-1.589,1.883-2.417c0.387-0.582,0.753-1.131,1.173-1.628
	c0.864-1.02,2.248-1.874,3.404-1.478c0.494,0.169,0.944,0.56,1.421,0.973c0.35,0.303,0.711,0.616,1.13,0.884
	c1.758,1.121,4.168,1.053,5.86-0.165c0.392-0.282,0.481-0.829,0.199-1.221C87.729,176.409,87.182,176.32,86.79,176.603z" data-fill="c3" style="fill: rgb(131, 131, 131); animation-play-state: running; animation-delay: 0s;"></path></g></g></pattern>
</defs>
<rect x="0" y="0" width="143.36" height="143.36" fill="url(#pid-0.6590519274487807)" style="animation-play-state: running; animation-delay: 0s;"></rect>
<style id="move-ltr-c2f782e7-4b9c-4010-9da4-87c1996ffbb8" data-anikit="">@keyframes move-ltr-c2f782e7-4b9c-4010-9da4-87c1996ffbb8
{
  0% {
    transform: matrix(1,0,0,1,0,0);
  }
  100% {
    transform: matrix(1,0,0,1,143.36,0);
  }
}</style><style id="move-ltr-c2f782e7-4b9c-4010-9da4-87c1996ffbb8" data-anikit="">@keyframes move-ltr-c2f782e7-4b9c-4010-9da4-87c1996ffbb8
{
  0% {
    transform: matrix(1,0,0,1,0,0);
  }
  100% {
    transform: matrix(1,0,0,1,143.36,0);
  }
}</style></svg>
